<?xml version="1.0" encoding="utf-8"?>
<!-- Svg Vector Icons : http://www.onlinewebfonts.com/icon -->
<!DOCTYPE svg PUBLIC "-//W3C//DTD SVG 1.1//EN" "http://www.w3.org/Graphics/SVG/1.1/DTD/svg11.dtd">
<svg version="1.1" xmlns="http://www.w3.org/2000/svg" xmlns:xlink="http://www.w3.org/1999/xlink" x="0px" y="0px" viewBox="0 0 1000 1000" enable-background="new 0 0 1000 1000" xml:space="preserve">
<metadata> Svg Vector Icons : http://www.onlinewebfonts.com/icon </metadata>
<g><g transform="translate(0.000000,511.000000) scale(0.100000,-0.100000)"><path d="M2413.8,4804.7c-574.5-112.5-1046.3-207.3-1052.3-213.2c-7.9-7.9,645.6-3431.2,673.2-3527.9c5.9-19.7-23.7-43.4-98.7-75c-148.1-65.2-248.7-157.9-325.7-304c-59.2-108.6-67.1-142.1-69.1-272.4c0-132.3,7.9-161.9,67.1-272.4c77-140.2,156-219.1,298.1-290.2l98.7-49.4l4-2059.1l5.9-2057.1l49.4-98.7c61.2-126.4,199.4-264.6,325.7-325.7l98.7-49.4H4848h2359.2l98.7,49.4c126.4,61.2,264.6,199.4,325.7,325.7l49.4,98.7l5.9,2057.1l4,2059.1l98.7,49.4c142.1,71.1,221.1,150,298.1,290.2c57.3,108.6,65.2,142.1,65.2,272.4c2,124.4-7.9,165.8-55.3,256.7c-29.6,59.2-100.7,150-154,201.4l-98.7,94.8l396.8,1299c219.1,714.7,396.8,1308.9,396.8,1318.8s-102.7,278.4-229,596.2l-229,578.4l-53.3-35.5c-29.6-19.7-260.6-177.7-515.3-351.4c-351.4-240.9-465.9-329.7-483.7-375.1c-13.8-31.6-223.1-710.7-463.9-1504.4l-442.2-1447.1h-55.3h-55.3v943.7v943.7l79,392.9c43.4,215.2,79,406.7,79,426.4c0,33.6-920,1152.9-947.6,1152.9c-27.6,0-947.6-1119.4-947.6-1152.9c0-19.7,35.5-211.2,79-426.4l79-392.9v-943.7v-943.7h-124.4h-124.4l-383,1984.1C3588.5,4640.8,3511.5,5012,3485.8,5010C3470,5010,2986.3,4917.2,2413.8,4804.7z M3624,2826.5c183.6-957.5,335.6-1751.1,335.6-1763c0-23.7-1591.2-29.6-1605-4c-5.9,7.9-15.8,55.3-23.7,104.6l-13.8,90.8l207.3,35.5c114.5,19.7,219.1,41.5,231,49.4c29.6,17.8-17.8,276.4-51.3,290.2c-13.8,3.9-114.5-9.9-225.1-31.6c-110.6-23.7-207.3-37.5-215.2-31.6c-17.8,9.9-69.1,284.3-55.3,298.1c4,5.9,177.7,41.5,381,81c205.3,39.5,375.1,71.1,377.1,73c3.9,2-53.3,294.2-59.2,300.1c-2,2-175.7-27.6-386.9-69.1c-254.7-51.3-383-67.1-386.9-53.3c-21.7,69.1-51.3,254.7-43.4,276.4c5.9,13.8,96.7,39.5,207.3,61.2c110.6,19.7,209.3,41.5,221.1,49.4c13.8,7.9,11.9,51.3-7.9,146.1c-13.8,73-31.6,136.2-37.5,142.1c-5.9,5.9-108.6-7.9-231-31.6c-122.4-23.7-223.1-39.5-227-35.5c-7.9,9.9-49.4,238.9-49.4,274.4c0,27.6,63.2,45.4,381,106.6l381,75l-29.6,154c-23.7,124.4-35.5,154-59.2,148.1c-17.8-5.9-173.7-37.5-347.5-71.1c-173.7-31.6-333.6-63.2-357.3-69.1c-35.5-7.9-43.4,5.9-69.1,148.1c-27.6,142.2-27.6,157.9,0,165.8c17.8,4,116.5,23.7,219.1,41.5c102.7,19.7,193.5,39.5,201.4,47.4c11.8,9.9-33.6,276.4-51.3,292.2c-4,3.9-98.7-11.8-211.2-33.6c-112.5-21.7-215.2-39.5-227-39.5c-31.6,0-88.8,296.1-59.2,308c11.8,3.9,359.3,73,771.9,154c742.3,142.1,750.2,144.1,764,102.7C3280.5,4585.5,3438.4,3784,3624,2826.5z M5548.9,4159.1c120.4-144.1,256.7-308,304-367.2l88.8-104.6l-57.3-296.1l-57.2-294.2h-173.8h-173.7v236.9v236.9h-157.9h-157.9v-236.9V3097h-173.7h-173.7l-57.2,294.2l-57.3,296.1l88.8,104.6c353.4,428.4,521.2,627.8,531.1,627.8C5327.8,4419.7,5430.4,4303.2,5548.9,4159.1z M8125.2,4054.5c45.4-114.5,80.9-213.2,77-217.2c-13.8-11.9-552.8,154-546.9,169.8c7.9,23.7,337.6,252.7,363.2,254.7C8032.4,4261.8,8079.8,4169,8125.2,4054.5z M7558.6,3697.1c61.2-19.7,112.5-43.4,112.5-55.3s-177.7-598.2-392.9-1305l-390.9-1283.2l-171.8-5.9c-130.3-3.9-167.8,0-159.9,19.7c3.9,13.8,187.5,612,404.7,1328.6c219.1,716.6,400.8,1314.8,404.7,1328.6c5.9,13.8,25.7,21.7,43.4,15.8C7428.3,3736.6,7495.4,3716.9,7558.6,3697.1z M8271.3,3450.4c-2-15.8-165.8-562.7-365.2-1218.1l-361.3-1188.5h-163.8c-90.8,0-163.9,5.9-163.9,13.8c0,17.8,752.2,2479.6,762,2497.4C7994.9,3578.7,8273.3,3480,8271.3,3450.4z M5795.6,2623.2v-157.9h-473.8H4848v157.9v157.9h473.8h473.8V2623.2z M5795.6,1596.6v-552.8h-473.8H4848v552.8v552.8h473.8h473.8V1596.6z M7698.8,688.4c104.6-53.3,140.2-124.4,140.2-276.4c0-156-35.5-223.1-150-280.3C7625.7,98.2,7450,96.2,4848,96.2c-2602,0-2777.7,2-2840.9,35.5c-114.5,57.3-150,124.4-150,280.3c0,156,35.5,223.1,150,282.3c63.2,31.6,229,33.6,2850.8,29.6C7286.2,718.1,7649.4,714.1,7698.8,688.4z M7375-2237.3c0-1883.4-2-2023.6-35.5-2086.7c-17.8-37.5-59.2-86.9-88.8-108.6c-55.3-41.4-61.2-41.4-2402.6-41.4c-2341.4,0-2347.3,0-2402.6,41.4c-29.6,21.7-71.1,71.1-88.8,108.6c-33.6,63.2-35.5,203.4-35.5,2086.7v2017.6h2527h2527V-2237.3z"/><path d="M2636.9-2036v-1026.6H4848h2211.1V-2036v1026.6H4848H2636.9V-2036z M6743.3-2036v-710.7H4848H2952.8v710.7v710.7H4848h1895.2V-2036z"/></g></g>
</svg>